<?xml version="1.0" encoding="UTF-8"?>
<svg id="Layer_1" xmlns="http://www.w3.org/2000/svg" xmlns:xlink="http://www.w3.org/1999/xlink"
    viewBox="0 0 1000 500">
    <defs>
        <style>
            .cls-1{fill:#30b354;}
            .cls-1,.cls-2,.bop-text{stroke-width:0px;}
            .cls-2{fill:none;fill:#ffffff;}
            .bop-text{fill:#ffffff;}
            .cls-4{clip-path:url(#clippath);}</style>
        <clipPath id="clippath">
            <polygon class="cls-2"
                points="303.81 265.08 303.81 95.14 146.19 95.14 146.19 206.81 303.81 265.08" />
        </clipPath>
    </defs>
    <circle class="cls-1" cx="143.66" cy="199.34" r="17.25" />
    <path class="bop-text"
        d="M100.76,115.41v36.39s-37.84,34.24-81.25,27.41c0,0,55.43-26.51,81.25-63.8Z" />
    <path class="bop-text"
        d="M186.15,224.29l-44.19-12.84c-2.84-.82-4.79-3.43-4.79-6.38v-89.65h-36.4v232h57.26c36.41,0,55.27-19.2,55.27-54.94v-19.86c0-24.49-7.61-41.7-27.14-48.32ZM176.89,291.47c0,17.21-6.62,22.84-18.87,22.84h-20.85v-71.16h16.22c16.55,0,23.5,6.62,23.5,28.13v20.19Z" />
    <g class="cls-4">
        <path class="cls-1"
            d="M149.91,264.99c-37.59,0-68.17-32.17-68.17-71.7s30.58-71.7,68.17-71.7,68.17,32.17,68.17,71.7-30.58,71.7-68.17,71.7ZM149.91,131.14c-32.32,0-58.61,27.88-58.61,62.15s26.29,62.15,58.61,62.15,58.61-27.88,58.61-62.15-26.29-62.15-58.61-62.15Z" />
        <path class="cls-1"
            d="M149.91,245.98c-27.66,0-50.16-23.64-50.16-52.69s22.5-52.69,50.16-52.69,50.16,23.64,50.16,52.69-22.5,52.69-50.16,52.69ZM149.91,150.16c-22.39,0-40.6,19.35-40.6,43.13s18.21,43.13,40.6,43.13,40.6-19.35,40.6-43.13-18.21-43.13-40.6-43.13Z" />
        <path class="cls-1"
            d="M149.91,228.45c-18.5,0-33.55-15.77-33.55-35.16s15.05-35.16,33.55-35.16,33.55,15.77,33.55,35.16-15.05,35.16-33.55,35.16ZM149.91,167.69c-13.23,0-24,11.49-24,25.6s10.76,25.6,24,25.6,24-11.49,24-25.6-10.76-25.6-24-25.6Z" />
    </g>
    <path class="bop-text"
        d="M224.29,297.72v-22.04c0-35.84,18.88-56.32,53.44-56.32s53.44,20.48,53.44,56.32v22.04c0,35.84-18.88,56.32-53.44,56.32s-53.44-20.48-53.44-56.32ZM295.97,299.97v-26.53c0-16-7.04-22.08-18.24-22.08s-18.24,6.08-18.24,22.08v26.53c0,16,7.04,22.08,18.24,22.08s18.24-6.08,18.24-22.08Z" />
    <path class="bop-text"
        d="M345.93,219.36h52.24c35.47,0,52.89,19.67,52.89,55.79v22.25c0,36.12-17.41,55.79-52.89,55.79h-16.77v91.91h-35.47v-225.74ZM398.17,320.95c11.29,0,17.41-5.16,17.41-21.28v-26.77c0-16.12-6.13-21.29-17.41-21.29h-16.77v69.34h16.77Z" />
    <path class="cls-1"
        d="M527.67,353.16l-4.42-4.82-1.28-.39-2.66.4-1.62-.17-2.64,3.01-4.54.67-4.97.03-2.37-2.95-.24.1-4.88,3.13-6.15-4.75.52-3.48-1.83-3.35.95-3.05-2.19-3.92,2.22-2.56-2.06-2.24,1.22-3.9-1.5-4.22,2.48-2.18-1.24-1.26-.64-5.7,2.18-2.91-.41-1.91.16-4.5,1.13-1.74-1.79-2.24.82-6.71-1.03-2.68-1.21-4.77,3.19-4.09.47-1.1-.95-1.83-1.44-4.41,1.08-3.6-.06-2.26-.7-4.34,2.52-3.33v-1.05s-1.78-3.63-1.78-3.63l1.37-4.18.27-1.7-1.5-3.18.6-2.69-3.01-4.13,3.22-3.51-.26-.58-3.31-4.52,2.36-4.69.78-2.94.36-.88-3.34-2.82,1.45-5.95,1.57-2.04-1.79-4.44-1.82-5.29,3.68-3.36-.16-1.02-1.1-4.36,2.05-3.38-.08-1.19-1.54-2.92-.8-4.79,1.57-3.11-.14-.94-3.79-4.44,3.74-5.11.34-.68-1.78-2.06-.87-5.85,1.67-1.71-3.1-2.86,2.91-3.57-1.33-1.88.21-3.98-.46-3.35.97-4.74.95-.93-2.81-2.1,3.14-7.95,6.68-1.33,2.12,1.21,2.18-1.71,4.64.19,4.21.5,1.72,1.61,1.02-.76,4.56-1.83,4.41,1.15,2.02.67,2.22-.61,7.77-1.05,3.47,2.57.73.1,3.96-2.86,3.94,2.79,5.72-.93,4.64,2.01,4.01-3.65,5.48,3.67,1.99,1.71,2.89.8,2.03,1.69,4.12.03,1.74,3.19,2.4.16,4.4,2.87.8,2.45,3.26.7,2.26,3.89,2.6,3.48-.31,2.61,4.35,2.36-1.81,3.76,4.01,2.09-2.55,5.37.41,1.38,1.82,3.94-1.4,4.54-.77,2.29.13.97,4.28,4.18-3.41,4.82-.35,1.53.63,3.71-1.82,2.75.32,1.21,1.61,3.6.11,3.94v5.58s-3.14,1.3-3.14,1.3l1.91,3.63-5.46,2.81-.73,1.9-1.65,3.17-1.79,1.71-1.05,4.97-4.58.48-1.01,1.49.17.11,2.76,3.17,1.42,2.69.67.53,6.99-.38.55,6.9.29.92,5.31,1.76-.93,6.19.36,2.52.36,1.76,3.91,3.44-1.49,3.84,1.96,2.47-.71,5.76-2.34,2.75.37,1.91-.26,2.58,1.3,2.56,1.41,3.73v4.39s-1.49,4.08-1.49,4.08l-.62,1.25,1.49,2.19.49,5.62-3.03,3.43-1.23,4.26.61,2.8.49,4.57-1.73,2.82.25,4.09-3.76,3.57-1.25,1.1-.02,4.64-6.88,3.01-1.29,4.88-6.42-.41-1.47.35-2.32,2.55-2.45.3-1.88,4.16-4.89.44-2.89.95-3.79.63-3.97-.25-1.89-.31-3.67,2.19-2.92-1.58-3.14,2.39-3.16-2.02-2.59,1.68-4.11-1.57-2.77-.06-1.83-.45-4.23,2.88ZM505.32,340.23l3.63,4.52h1.02s1.45-.22,1.45-.22l3.35-3.82,4.38.46,3.33-.51,4.7,1.42,1.57,1.72,1.76-1.2,4.16,1.03,3.22.07,1.88.72,3.4-2.2,2.83,1.81,2.85-2.17,3.4,1.85,2.42-1.44,4.28.7,2.62.15,2.46-.41,3.15-1.04,1.56-.14,1.82-4.03,3.8-.46,2.01-2.21,4.65-1.11,1.64.11.68-2.56,5.77-2.5v-3.21s3.62-3.18,3.62-3.18l1.2-1.14-.18-3.03,1.64-2.66-.21-1.95-.9-4.02,1.13-3.81,1.05-3.71,2.09-2.36-.06-.71-2.79-4.08,2.37-4.8.84-2.35v-1.84s-.87-2.3-.87-2.3l-2.02-3.87.37-3.66-.82-4.24,3.18-3.74.08-.68-2.64-3.33,1.16-3-1.97-1.73-.9-4.42-.52-3.66.19-1.28-3.08-1.02-1.62-5.17-.06-.76-2.75.15-3.95-3.15-1.73-3.27-1.59-1.83-1.72-1.14-2.81-.58-6.51-5.73,9.28-1.73.75-.79,2.57-3.77,2.71-.28.43-2.05,2.53-2.42,1-1.92,1.43-3.88,1.52-.78-2.21-4.18,5.97-2.47v-.76s-.07-2.37-.07-2.37l-1.27-2.83-1.28-4.87,2.03-3.06-.4-2.33.98-4.29.71-1-1.68-1.64-.68-5.05,1.28-3.82.55-1.8-.89-1.92-1.34-4.5.77-1.63-4.05-2.1,1.86-3.87-2.63-1.43.55-4.59-1.25-1.71-.78-1.34-4.18-.9-1.29-3.97-.73-.48-4.45-.29-1.61-2.94-2.47-.02-2.81-2.34-2.93-.82-3.03-2.59-.32-.21-3.21,2.92-5.07-2.04-1.99-.87-6.53,1.05-2.16-1.53-2.14,1.55-5.36-.75-2.61-1.93-4.41.6-3.87,1.06-3.96-1.32-1.79-.46-1.52.61-5.07,3.78-4.36-4.1-1.74-.21-1.59-.06-3.88,3.05,1.18.88-5.35,5.23-.29,1.41.39,2.81-.12,2.18,3.03,4.28-2.1,2.58,3.56,3.29-4.32,4.43.04.3,3.53,4.08-2.72,5.47-.76,1.04,1.47,1.71.75,5.21-1.53,3.04.23,1.36,1.7,3.23.35,4.95-1.68,2.77.47,1.94.78,4.97-3.04,2.78.27.77,3.24,7.94-3.17,4.1-.05.19,3.94,3.33-2.16,5.26-.85,3.2-.73,1.45,1.19,1.63,2.45,5.56-2.42,2.63,1.47,2.01-.76,3.45,1.4,2.96-.71,4.44-.64,1.96,1.23,2.51v5.09s-2.12,2.81-2.12,2.81l.29,1.81.1,3.88-.76,2.55.57,1.73,2.24,4.32-2.18,5.05-1.6,2.06.29,1.16,1.46,3.69-.65,5.58,3.12,3.91-2.86,4.4-.06,1.64.91,4.23-2.43,3.24.05.44,4.8,4.88-4.5,3.97.68,1.92-.71,2.25,3.57,3.9-3.11,3.58,1.24,2.23-.96,3.09,1.52,2.8,5.49-2.41ZM542.19,320.1l-2.9-1.83-2.45,1.43-4.2-.52-6.56.17-1.44-8.21,1.43-1.74-3.83-3.61,5.38-4.22-.21-.94-.48-2.44-1.68-2.83-1.69-4.95,1.95-3.31-.45-2.44.96-4.41.81-1.2-1.79-1.83-.61-5.12,2.23-5.75-.71-2.13-.64-4.85,1.24-1.61-3.65-3.31,3.62-3.76-.13-8.18,6.73,2.91,2.48-.27,2.03.19,3.73-2.83,4.16,2.13,1.54-.11,4.89-2.03,3.35,2.97,3.74-.2,3.33,3.65,3.25,2.87.73,4.93v1.01s4.68,1.93,4.68,1.93l-.4,6.12-.57,2.64.65,2.49.86,4.57-1.61,2.36,1.59,2.29-.73,5.41-1.95,2.75.62,4.72,1.02,3.94-2.57,5.65.26,1.79,1.67,7.09-6.91,1.41-1.76,1.21-1.62.8-3.04,4.79-4.86-1.98-2.08.45-2.91.37-4.52,1.6ZM533.12,312.05l2.21.28,4.1-2.39,3.64,2.29,2-.7,3.5-.44,3.75-.85,1.42.58.92-1.45,2.96-1.46,2.53-1.74,1.12-.23-.08-.39-.59-4.06,2.41-5.2-.53-2.14-1-7.74,2.54-3.58.12-.93-2.81-4.05,2.71-3.98-.29-1.54-1.01-3.77.83-3.81.03-.49-4.33-1.79-.02-5.26-.27-1.84-1.71-1.54-1.19-1.3-3.29.17-2.2-1.95-1.83.76-4.69.35-1.95-1-2.37,1.8-4.08-.39-.88.1-1.63,1.69,3.07,2.78-3.45,4.48.16,1.24,1.31,3.96-1.7,4.25-.83,2.18.12.97,4.16,4.26-3.31,4.89-.37,1.68.67,3.65-1.63,2.78.39,1.15,1.94,3.26.7,3.61,1.15,5.2-2.4,1.88,2.63,2.48-2.68,3.27ZM539.3,223.63l-4.34-4.8-1.23.25-5.25,1.49-3.2-5.06-1.71-4.99,1.95-3.31-.45-2.43.97-4.41.81-1.19-1.78-1.82-.62-5.12,2.23-5.73-.7-2.12-.64-4.84,1.23-1.6-3.65-3.3,3.27-3.38-2.17-2.59,2.71-4.17-.22-1.98.04-4.38,5.86-4.47,4.38,2.07,1.63-.16,4.39-2.31,3.53,1.97,3.1-1.2,4.06,2.16,3.91,1.26,2.57,4.31.31.93,5.28.52.8,6.45-.25,2.75.9,2.45,1.18,4.55-1.58,2.29,1.56,2.16-.75,5.36-1.93,2.61.21,1.61.34,2.85.78,4.15-2.2,3.96-.99,1.61v1.93s.43,7.34.43,7.34l-7.02.25-2.07.99-1.52.56-3.27,4.44-4.7-2.02-1,.22-5.17,3.91ZM537.53,211.04l2.68,2.97,1.22-.92,4.77-1.03,1.6.69,1.18-1.6,3.35-1.24,2.95-1.44,1.24-.04v-.35s-.03-4.05-.03-4.05l2.01-3.27.84-1.51-.36-1.98-.34-2.92-.58-4.42,2.57-3.47.1-.72-2.84-3.92,2.6-3.75-.31-1.2-1.3-3.44.33-3.61v-.03s-4.21-.42-4.21-.42l-1.53-4.58-.8-1.35-1.95-.63-1.73-.92-3.18,1.23-3.08-1.72-2.21,1.16-4.98.49-1.87-.88h0s.45,4.1.45,4.1l-1.23,1.89,2.9,3.48-2.6,2.69,3.07,2.77-3.45,4.47.16,1.22,1.31,3.95-1.7,4.24-.83,2.16.11.95,4.17,4.25-3.31,4.88-.36,1.66.67,3.64-1.63,2.77.32.93.48-.13,5.34-1.08Z" />
    <path class="cls-1"
        d="M717.55,354.76l-3.3-3.53-2.35.98-2.35-1.22-2.67,2.49-4.68-1.16-2.61-.2-5.28.18-3.57-6.6,1.57-3.29-1.71-2.89,1.7-3.59-.46-1.02-3.84-4.73,3.46-4.15-.15-.34-3.06-3.17-.56-5.38,1.36-2.61-.57-.98-2-2.52-2.02-.9-2.43,1.18-5.16-.64-2.49-2.3-.36.07-3.52,2.78-4.04-.63-3.03.35-3.84-.71-1.83-.72-2.69,1.33-1.19-.26.14.68,1.19,4.43-1.61,3.2.31,3.79-2.89,2.85-.02.93,1.91,4.87-1.99,1.87,3.6,3.77-4.55,3.76.42,2.5-1.73,2.72,1.11,4.61-6.8,3.78-7.37-1.12-4.17-.23-2.97-2.51-4.2.27-2.54,1.22-4.76,2.38-8.89-4.73,4.55-5.16-.03-1.47-.59-3.71.78-2.7-.81-2.64-.24-3.7-.11-5.16,3.59-2.17-.11-.49-1.93-5.41,2.75-2.32-1.5-2.81,3.19-4.41,1.29-2.3.52-1.77-.28-1.69-3.12-5.11,4.11-4.56,1.34-1.77.13-2.29.39-1.65-3.88-5.15,3.68-2.56-.97-1.36-.52-6.14,3.95-2.79.19-1.41.35-3.83,1.49-2.37-.41-2.39.41-2.85-.75-2.81-.45-4.65,2.54-4,.41-.57-2.64-3.29,2.23-4.11-.02-3.65,2.97-3.03.46-1.79.22-2.04-1.33-4.19,1.99-2.92-.65-2.71,1.57-4.33.58-1.14-1.44-2.51-.18-5.34,2.76-3.35.92-2.23.91-3.13.66-1.22-3-4.19,4.4-4.26.38-.93-1.15-3.14,1.38-4.39,1.34-2.6.23-1.56-.97-2.72-.7-3.78-.03-4.68,2.75-3.43.53-1.06-1.75-4.18,3.97-3.44.32-2.03.41-1.21-4.14-4.46,3.55-4-.2-2.71,3.03-5.57,3.96.33,3.76-2.45,4,1.98,1.74-.16,2.72-.77,5.03-1.54,3.69,3.5.8.07,2.41-1.25,3.66-1.54,5.39-.26,1.72,1.9,2.92-2.86,4.33,4.23,1.69-.23,5.27,3.46-.05,5.54-.41,1.39,2.43,1.89,1.06,5.53-1.61,3.11.3.86,2.97,3.57-.95,4.31.23,1.83,1.31,2.69,1.03,4.36-1.51,4.46-.26.54,5.23,2.93-4.16,4.59.89,1.02.9,4.27v3.24s.39,3.21.39,3.21l-.33,3.16.27,2.31.64,2.07,2.19,3.02.53,4.14.15,2.12,2.59,3.93-2.27,3.61,1.21,2.2-.5,2.14,3.26,2.17v5.48s-.68,2.52-.68,2.52l1.12,2.73-.67,3.85.04,1.65,1.76,2.5.78,3.97.32,2.44,1.89,3.79-1.18,2.8,2.41,2.82-2.35,4.81-.04.86,2.15,2.27.82,3.54,2.12,4.37-2.16,3.14,1.39,1.96-.8,4.53-.11,1.02,3.22,2.45-.18,5.52-1.18,3.26-.04,2.46.02,2.71.49,2.44.77,2.29,2.05,3.14.44,4.32-.22,1.66,3.54,3.04-1.98,4.68.47,2.2.07,1.95,2.64,2.55.47,4.5.24,4.09-2.03,3.69-.05.44,4.03,3.05-3.2,6.92-5.37.78-2.34-1.12-1.56.94-5.53,3.05ZM634.18,345.99l2.33.15,5.04.77-.54-2.25,1.88-2.96-.65-3.86,1.82-1.5-3.27-3.42,3.7-3.49-.67-1.71.11-5.25,2.58-2.54-.2-2.47,1.29-2.56-.56-2.13-1-4.96,4.77-5.23,3.35.74,3.28-1.62,4.13,1.63,2.11.39,2.93-.34,1.92.3,2.43-1.92,5.6-1.1,3.47,3.19.8.1,3.52-1.7.54.24,3.03-2.32,8.05,4.65-2.1,4.03.54.68,2.78,4.82-2.17,4.18.08.81,2.27,2.35,2.37,5.57-2.5,2.99.72.89,2.2,4.87-1.49,3.15,1.72,2.89-1.41,2.96.76-.03,3.6.27,1.52.38,3.52-3.28,3.85,1.99,3.85-1.61,2.9,3.1.61-.34,4.59-2.76.5-4.25,1.71-3.11-.12-1.96-.18-1.67-2.85-2.75-.15-4.2-.82-3.78.83-1.96-2.52-2.16.62-4.66-.18-1.76-1.6-2.46-1.24-3.79-.67-3.33-.03-3.47.06-3.74,1.2-3.32.02-.7-3.49-2.65.58-5.39.3-1.72-2.54-3.59,2.63-3.82-.66-1.36-.56-2.42-2.93-3.08.28-5.37.93-1.91-2.23-2.61,1.62-3.84-.96-1.93-.46-3.5-.43-2.14-2.14-3.04-.11-4.51.44-2.51-1.26-3.07,1.07-3.95v-.71l-4.19-2.8,1-4.29-1.92-3.48,2.06-3.28-1.09-1.66-.27-3.88-.26-2.02-1.82-2.51-1.18-3.82-.45-3.75.33-3.14-.36-2.85v-2.94s-.35-1.71-.35-1.71l-3.85-4.39,2.42-2.67-3.31-1.86,3.04-6.18.71-2.08-.38-1.6-1.48-3.04-.53-4.23.46-2.1-1.56-1.88-1.74-4.99,1.89-3.64-.09-.46-4.15-3.22,1.51-5.1v-.49s-2.28.31-2.28.31l-1.83-1.79-3.24,3.17-4.44-4.89-.77.04-2.36.99-3.88,2.04-5.36-.5-2.46-2.34-1.15.35-3.4.97-4.41.4-2.16-1.07-2.39,1.56-1.54-.13.24,3.25-1.25,1.41,2.63,2.83-1.58,4.66-.63,4-2.04,1.77,1.03,2.46-2.35,4.66-1.64,2.04v1.51s.49,2.6.49,2.6l1.37,3.85-.65,4.49-1.6,3.11-.47,1.49,1.27,3.44-1.98,4.88-1.07,1.03,2.01,2.81-2.41,4.47-.88,2.96-1.4,3.39-1.73,2.1.03.88,2.46,4.31-2.21,4.37-.61,1.71.89,3.72-1.81,2.65.74,2.33-.44,4.03-1.05,4.14-2.26,2.3.02,2.54-.85,1.56,3.05,3.81-3.49,4.88-1.07,1.68.16,1.63.98,3.66-.46,3.19.68,3.97-2.04,3.24-.22,2.33-.6,4.57-3.16,2.23v.13s4.03,5.64,4.03,5.64l-3.52,2.45,1.43,1.9-1.01,4.3-.22,3.84-2.94,3.85-.65.72,1.07,1.75.79,4.67-1.22,4.13-2.01,3.53-.69.96,2.12,3.97-3.38,2.86.46,1.36,1.31,5.73-4.48,2.7.02.96.17,2.63,1.19,3.87-.93,3.21.42,2.63.05,2.63,2.65-1.27,8.44-.55,3.35,2.83ZM658.81,281.82l-8.42-.94.92-8.28,1.26-3.9,2.13-2.86.25-.73-2.54-3.6,2.13-5,.82-1.61-1.35-4.21,3.64-2.92-.23-1.55.18-2.53-1.87-3.84,1.84-5.07,1.49-1.6-1.35-3.19,2.67-3.23-.35-2.18.6-3.52.23-2.22-1.14-3.57,1.22-4.37,1.17-2.32-.3-3.34,2.18-3.49.23-.74-3.16-3.94,2.21-3.83-.8-3.92,2.95-2.57-.56-1.96.89-3.82.35-2.06-.99-2.97v-4.03s1.29-6.88,1.29-6.88l8.49.96.68,6.24-.06,3,.34,1.78,3.73,4.5-2.49,2.67,3.3,1.97-3.12,6.13-.76,2.12.36,1.67,1.42,3.11.44,4.26-.51,2.14,1.54,1.96,1.63,5.04-1.95,3.64.09.53,4.07,3.35-1.59,5.09-.03.99,2.79,2.5.67,5.8-1.32,1.81,3.59,2.77-4.21,5.09.15.77,1.32,2.21,2.56,3.57.26,5.38-1.97,2.78.52,1.12,1.43,3.24,1.02,4.32-.76,2.31,1.88,2.17.48,8.08-7.21.53-3.09-.39-3.88.2-1.82-1.14-2.56,2.14-4.51-1.36-1.79-.11-2.69,1.19-4,.65ZM658.27,274.58l.36.04,2.13-.35,3.44-1.51,4.34.26,1.62.49,3.58-3,4.31,2.7,2.26-.12,1.15.15-1.52-1.75,1.4-4.24-.41-1.72-1.15-2.61-2.22-4.78,2.94-4.16-.04-.82-1.58-2.23-2.04-3.42-1.01-5.31,1.64-1.99-3.25-2.51,3.77-5.16-.04-.34-3.23-2.9.14-5.28.45-1.45-2.42-1.99-.94-5.57,1.67-3.12-.3-.94-2.89-3.66,1.03-4.32-.11-1.04-.86,2.8-1.41,2.26.26,2.98-1.77,3.51-.46,1.64.94,2.96-.42,4.05-.42,2.47.68,4.21-1.97,2.38,1.46,3.44-3.64,3.93-.32.87,1.39,2.85-.26,3.66.72,4.82-3,2.41.75,2.33-2.09,4.12-.43,1.01,2.35,3.33-1.79,5.23-2.09,2.81-.67,2.09-.05.48Z" />
    <path class="cls-1"
        d="M783.43,353.88l-2.55-2.03-3.66,1.59-3.86-4.17-.85-.43-3.19,1.01-3.77-1.18-5.22-.79-1.18-4.03-2.71-.31-3.25-5.22-4.41-.19-2.75-5.3-.29-3.74-.9-2.53-.79-2.59-1.08-2.29-1.22-2.16-2.59-2.95-.8-4.48.2-1.76-3.75-3.18,2.38-4.78-.3-2.3.25-2.89-.65-3.08.32-2.5-2.64-4.57,3.37-3-.9-7.69,6.7,1.85,2.56.02,3.78-.41,2.66,1.36.74-.2,4.51-4.23,4.37,3.44h.41s4.82-3.98,4.82-3.98l3.53,4.7,2.35-.95,3.95,6.53-2.13,3.69.12.73,4.35,5.07-3.23,2.5,2.06,1.64-1,4.04,1.09,2,.74,3.22.92,2.74.8,2.5.5.45,3.81-.85,1.81,1.63,3.07-2.63,4.55,3.34,1.69.25,1.45-.32,1.52-1.66,2.29-2.56,1.74-1.31.11-.88-1.82-4.73,2.67-2.65-.36-1.3-.64-3.26.07-3.85.26-2-1.54-2.94.42-2.49-3.29-2.96,2.74-4.97-3.98-.62-2.95-4.53-.47-3.74-1.02-2.34-.52-.96-5.05-.34-1.07-5.2-2.16-2.18-.58-2.52-1.63-.42-5.07-2.23-.34-2.3-5.38,1.04-.36-7.56-.81-1.3-2.34-1.65-1.16-1.41-6.25.14-.31-6.29-1.05-1.2-1.4-1.23-6.46-1.14.71-4.8-3.29-.99-.03-4.09-2.96-1.41-.8-4.38-1.01-1.65-2.97-2.72-.8-3.62-2.09-3.36.62-4.04-.46-2.03-1.29-2.93-1.48-4.35,1.23-2.81-1.49-2.39.26-4.91,1.53-3.52.78-2.16-.17-2.61.51-4.41,1.25-1.43-1.76-2.68,1.46-4.95,1.87-3.17,1.32-2.08.45-2-.04-6.45,4.38-.3-.3-1.38,2.15-5.28,5.05-2.61,2.65.28.88-2.41,4.07-1.06,1.05-.86,2.21-5.01,5.77-.15,2.04.21,3.27-2.64,2.61,1.36,2.02-3.1,5.09.91,3.59-.16,3.75,1.89,2.2.88,1.59.04,2.29-.89,4.34-2.19,4.24.98,3.27.64,5.04,1.77.73,3.01,1.8-.69,5.26,2.97,1.25,3.31.85.41,6.63.59-.28,6.3.86,1.01,2.7,2.53.89,2.54,3.29,2.18.42,3.49,3.31,3.13-1.64,4.25.94,1.74.81,3.87-.1,3.83-.46,1.97,1.27,2,1.27,4.09-.25,3.33.35,2.52.95,4.93-4.46,3.85-4.57,2.4-2.76-2.19-1.74,1.11-3.86-.19-2.69.17-2.15.18-3.06,1.66-4.13.03-3.72-.62-2.67-1.26-8.16-.09,4.17-7.23.07-1.47-.59-2.76.1-2.99-.32-3.27.21-3-.47-1.79-1.79-1.98-2.87-3.12-.31-2.28-1.88-.36-3.06-2.56-.74-.47-2,1.48-3.6.8-3.22.83-2.51-.1-1.85,1.29-1.44.56.06,2.06-1.48,3.12-.56,3.06-1.31,2.62.08,2.45-.19,2.28,1.26,2.46.55,2.78,2.35,3.69-.85,1.88,1.82.56,3.25,5.11-.72,1.78,1.88.11,3,5.25-.29,2.82,1.42.62,2.56,2.93,2.11,2.51.69,1.11,6.05-.21-.16,5.24.8.12,5.24,1.91.87,4.22,1.65,1.1,1.56,1.62,4.59.78,1.42,4.34,1.32,1.12,7.16,4.2-.35,5.26.42.64,2.59,1.17,3.49,2.08,3.35,4.53-.82,2.61,4.28,1.17-2.2,6.42.12.28,4.05,2.07.84,5.49-.29,1.57,2.77,1.8,1.27,5.79-1.79,3.24.29.96,2.8,3.96-1.55,4.33-.05,1.94.87,3.04.11,4.69-2.68,4.15-.52.56,1.85,4.29-3.42,3.39.5,1.46-1.15,4.48-1.73,3-1.51,3.11-2.31,2.47-1.37,2.05-1.05,2.08-.84,3.96-3.16,3.1-2.06,1.52-2.44,4.53-4.62-.71-1.83,2.13-2.49.08-1.55,3.99-5.81.87-2.85-.52-2.91,1.33-4.06-.79-1.78-.07-2.82,1.61-4.13.23-2.7-.13-4.32,1.1ZM781.96,343.6l3.14,2.49,1.93-.49,3.4.17,2.07-.11,3.14-1.79,4.37.18,2.35.46,2.87-1.31,3.89.71.55-.08,1.76-4.52,4.07-.14,2.37-2.75,3.56.55.81-1.51,2.94-2.17,1.27-1.25.59-2.76,1.78-3.47,1.81-2.72,1.97-2.1,1.21-2.48,1.31-2.27.38-1.48-1.81-5.36,2.98-1.48-2.42-2.59,4.63-4.95,1.15-1.78-.04-1.59-.92-3.21.11-4.18.69-1.92-1.34-1.89-1.46-4.95,1.93-3.51-.07-.31-4.32-2.81.95-5.07-.1-.68-3.14-1.61-2.15-5.19.61-1.78-4.09-1.12,1.95-6.22-.34-.47-2.07-1.24-3.91-1.72-2.92-4.4.22-3.28-3.88-2.27-3.34-2.82-.71-2.18-2.65-.45-2.65-2.74-3.46-2.29-.66-3.21-.84-.31-6.35-.97.12-3.95-2.54.09-2.62-4.17-1.77-2.11-1.44-1.64-4.74-2.06.59-5.63-7.9-.46,3.02-7.44-6.85-2.09,2.59-5.75-1-1.57-.61-3.12-1.73-3.38.32-3.89-.13-3.85,1.67-3.33.54-2.99,1.15-2.42-.15-5.35,5.32-2.09,3.13-2.19,3.87.16,2.37-.61,2.18-.48,4.72-3.51,5.27,3.37,1.99,1.67,5.1.98.69,5.13,1.37,1.49,2.97,3.29,1.22,4.6-.25,3.57.31,3.14-.08,2.59.6,2.82-.15,2.93,1.72.81,2.14.36h1.73s2.8-1.53,2.8-1.53l3.75-.31,3.13-.19,2,.1,4.12-2.62,3.04,2.41.51-.44-.22-1.15-.47-3.37.21-2.74-.59-1.89-2.36-3.72.96-4.18.06-2.28-.43-2.03-2.02-3.72,1.1-2.86-1.7-1.61-.33-2.77-2.54-1.68-1.11-3.16-1.87-1.78-2.79-3.3.1-2.28-1.13-.1-4.59-2.21-1.35-3.56-.1-.06-6.24,2.37-1.72-7.11-.89-.31-2.94-.58-1.78-.41-2.51,1.25-3.77,1.46-4.3-.1-3.82-1.55-2.22-1.12-2.52.11-1.22-.22-2.97,4.56-4.21-2.19-1.92,1.55-4.51-.46-.81.02-1.08,2.43-3.58,2.93-1.96.51-1.5,4.12-6.08-.63-.82.42-.33.81,1.56,7.28-5.91.41v.57s-.9,4-.9,4l-1.94,3.07-1.33,2.27-.28.94,2.92,4.44-3.36,3.84-.18,1.57.22,3.45-1.41,3.87-1.06,2.44-.07,1.38,2.29,3.67-1.63,3.72.54,1.58,1.39,3.11.92,4.03-.43,2.78,1.34,2.16.58,2.61,2.06,1.89,2.22,3.65.38,2.09,3.7,1.76.02,3.31,4.15,1.25-.6,4.03,1.61.28,3.39,3.03,2.84,3.24.09,1.83,2.79-.06,2.75,3.35,2.73,1.92,2.55,4.1.06,1.18,4.6-.89.86,5.77.94.41,5.26,1.36,1.1,4.77,2.22,2.25.4,1.95,3.56.24,2.59,4.82,1.49,3.42.4,3.13.32.49,5.77.9,1.82,6.81-1.62,2.94,2,1.8-.67,3.98,1.47,2.81-.52,4.02-.03,2.49.47,2.39,1.4,4.91-2.36,2.34.79,2.05-.69,5.64-3.6,2.72-1.85,2.07-3.08,3.37-4.95,1.08-4.73-.71-1.41-1.04-3.52,3.01-3.73-3.35-3.81.85-4.68-4.21-1.37-4.29-1.05-3.19-.56-2.43-1.95-3.58.57-2.3-5.57-4.45,4.46-3.46-.76-.89-.86-5.22.13-.23-1.6-2.13-1.04.86h-5.45s-1.49-1.18-1.49-1.18l-1.35,1.26-5.12,1.36-3.2-1.63-1.49.16-3.59,3.19.94,1.62-.47,3.69.62,2.94-.28,3.17.48,3.69-.86,1.73,2.39,2.03-.51,4.5.27,1.49,1.77,2.01,1.77,3.16,1.35,2.87.92,3,1.14,3.21.25,3.24.18.35,4.09.18,3.35,5.49,4,.46,1.23,4.2,1.25.19,2.14.67,3.85-1.22,4.58,2.35,1.27,1.38,2.95-1.28Z" />
    <path class="cls-1"
        d="M856.04,353.88l1.22-8.21-.87-2.99.46-4.04.67-3.5,1.42-3,.18-1.13-2.63-3.79,1.65-2.7-3.11-3.25,3.73-5.01.72-2.18.25-1.94-.84-2.69-.34-4.19.91-2.66-.44-1.41-3.19-4.57,2.33-3.58-.59-1.63-.77-3.72.13-3.78.49-2.39-1.17-3.36,1.02-2.66-2.47-4.13,4.59-4-3.44-2.67-.07-5.67,1.81-3.48.66-2.58.24-1.14-3.52-3.69,2.81-4.54.02-3.1,1.41-2.16-.79-1.47-1.72-5.24,1.45-1.74-4.17-3.25,5.15-5.24.38-1.43-.41-2.77.18-1.76-4.37-4.16,3.9-4.65.02-1.52-.24-1.76-4.07-4.79,3.26-3.19-1.91-2.55,2.09-3.22-1.64-2.57,1.35-3.98-.14-1.73-1.49-3.46.53-3.38-.85-3.56,1.57-3.47v-1.85s-.69-2.79-.69-2.79l-.87-4.32,1.35-2.48-1.25-2.26.32-4.67,1.38-3.42.63-2.15-.36-2.53-.02-4.4,1.52-2.26-.78-4.1,4.17-1,3.9-3.52,5.36,1.58,2.95,1.57,1.79.35,3.47-.89,3.45,1.43,2.05-.11,1.8-.34,3.63-3.58,8.52,1.46,1.61,7.72-1.43,3.55-.2,2.22.29,3.64-1.61,3.68-.34,1.08,2.86,3.7-2.46,3.36,1.35,2.4-1.6,4.9-.4.89,3.09,3.35-3.09,4.76-.3,1.71.25,1.41,4.5,4.91-3.5,3.2,1.77,2.21-2.16,4.39-.09,2.89-.64,1.64,2.46,2.89-1.56,5.21-.61,1.54,1.34,2.61-.37,2.62,3.42,4.18-1.79,2.04,2.43,2.17,1.42-.02,1.65-.24,4.29-4.24,5.15,3.47.47.19,3.28-3.38,5.11,2.79,1.64.5,1.77-.57,1.61-.74.36-.25-4.15-5.4,3.99-3.26-.56-.91-1.13-5.34,1.3-1.56-2.45-1.94.43-6.34,1.54-1.42-1.46-1.38-.36-5.72,1.59-2.22-1.86-3.27,2.11-2.4-2.21-2.14,1.45-5.43,1.59-3.13.18-.54-3.08-2.69.57-5.99,1.33-1.54-3-3.37,4.83-4.34v-.16s-2.14-2.54-2.14-2.54l-2.14-5.7,3.1-3.28-.69-3.04,6.11-4.71,3.75,1.42,3.93-1.35,2.99,2.85,1.15-.47,4.04-1.4,4.51.96,3.2,1.6,1.55.44,1.87-.82,6.88-1.15,2.84,6.76-.02,3.56-.86,2.89.22,2.59.11,4.23-1.46,2.09.91,1.47,1.54,5.21-2.09,2.87.59,1.44.98,3.85-.32,4.51-1.41,2.27,1.25,3.1-2.2,3.36.23,1.06,1.96,3.42-.06,4.95-1.76,3.08-.06,2.04.15,3.68-.53,1.37,5.01,4.2-4.23,3.4,2.12,2.33-2.58,3.8.95,2.33-.54,2.33,3.43,3.76-2.62,3.84,1.06,2.75-2.06,4.24-.23.7,4.28,4.13-3.47,3.17,2.13,2.26-2.31,4.47.1,2.42-.36,2.66.62,2.37.78,2.84,1.95,5.02-3.95,4.06-.28.97.72,1.67,2.37,4.01-.95,5.14-1.99,2.81-.02.83,2.02,2.99.07,4.18-.09,4.13-1.54,2.42.93,2.57-.68,2.05,4.62,4.27-3.89,3.2,2.25,2.32-2.73,4.18.48,2.15-.44,4.32-.81,1.54,1.96,2.31-.34,5.66-2.25,2.7.1.57,3.2,4.18-2.06,3.82.77,2.77-1.08,3.01,2.24,7.26-7.04-1.16-4.41,3.54-3.77-3.95-1.95.68-2.86-.73-2.54,1.26-3.65.27-3.89.61-2.79-1.06-3.28,1.11-5.61-2.74-1.36-5.82,1.89-2.96-.69-2.41.79-3.3-.43-3.01.64-2.9-.41-1.83-1.52-3-1.66-4.34,1.1-2.79-2.11-3.88,3.8-3.95.02-.58-1.91-3,.03-4.79,1.6-3.95.7-1.16-1.83-2.27.41-3.53-1.26-2.7-.47-5,2.82-3.9.21-.42-3.72-3.5,3.05-3.78-.7-1.36-2.02-5.18,3.24-3.36-.22-1.13-.83-3.3-.11-2.17-3.24-1.12-2.32-.35-3.27.25-3.34-.93-1.63-.15-2.85,1.59-3.7.11-4.55.7-2.7-2.55-1.22,1.69-1.11,1.04-.18,1.4.27,2.95-.14,1.95,2.31,2.89.15,5.61-2.03,2.38,1.09,2.45-1.77,3.94-.21,2.76-.67,2.53.27,1.21,3.89,4-1.88,4.55.02,1.77,1.58,4.78-3.92,3.4v.09s2.87,3.3,2.87,3.3l-.25,3.65,1.74,3.99-2.52,3.98-.14,1.08,2.57,4.51-3.23,2.91,1.04,1.56-.43,4.16-.02,2.69.39,3.85-1.33,2.8.37,1.5,1.78,8.76-8.27-1.15h-1.27s-4.88,3.71-4.88,3.71l-3.99-4.89-.51.08-4.25,2.18-3.7-1.99-.97.15-5.09,4.08-3.18-3.83-7.88,2.53ZM938.33,344.66l3.41,1.29,2.46-.37,2.4-.17,3.66-1.81,3.33.85,4.25-1.49,2.42,2.54,1.41-1.13.77-2.14-.93-3.35,1.23-2.29-1.48-1.93-.93-5.55,2.85-3.41.03-.46-3.22-3.8,2.41-4.57.18-1.8-.88-3.96,1.26-1.93-3.66-3.79,3.55-2.91-1.99-1.84,1.35-4.06-1.29-3.54,2.36-3.69.04-1.99-.03-1.93-2.11-3.12.12-5.28,2.34-3.3.18-.97-1.33-2.3-1.83-4.24,1.5-5.14,1.99-2.05-.47-1.27-.84-3.05-.99-3.77.46-3.44-.15-3.69.85-1.64-3.64-3.85,3.21-2.94-2.05-1.98,1.91-5.61.81-1.66-1.29-3.36,1.55-2.27-2.14-2.35.87-3.78-1.54-3.78,1.57-2.31-3.44-3.78,3.37-2.71-2.27-1.9,1.84-4.74-.1-2.43.11-4.07,1.74-3.03v-1.16s-1.52-2.69-1.52-2.69l-1.11-5.05,1.8-2.75-1.21-3.01,2.39-3.84.11-1.6-.58-2.26-1.9-4.67,2.36-3.24-.27-.9-2.89-4.64,2.81-4.02-.05-1.77-.31-3.62.96-3.22v-1.46s-3.93,1.72-3.93,1.72l-4.65-1.31-2.99-1.49-1.68-.36-2.06.72-5.15,2.13-3.21-3.06-2.27.78-1.58-.6.34,1.47-2.66,2.82.15.39,2.98,3.55.08,5.94-1.95,1.76,2.43,2.73-3.92,4.55v.1s3.88,3.4,3.88,3.4l-1.83,5.55-1.49,2.95-.18.66,4.07,3.95-3.23,3.69,1.61,2.83-2.78,3.87.02.37,4.97,4.7-4.91,4.53,5.12,4.04-3.78,4.53.16.74,3.19,5.17-3.46,2.83.51.66,2.57,6.11-5.58,3.94-2.81,1.27-4.12,1.32-4.46-1.38-.98-.54-2.82,2.9-5.62-2.22-.95-.64-1.81,1.78-4.44.64-4.67.06-2.27-2.03-8.2,4.14,1.79-12.08,1.37-1.57-1.57-1.92.49-3.47-1.79-3.49,1.76-4.4.31-1.04-2.72-3.2,1.75-4.45.1-3.2.84-1.7-3.11-3.88,3.16-2.89-1.08-1.18-.82-4.68.76-4.38.86-1.33-2.54-2.74,2.26-5.02.44-1.37-2.07-3.69,2-2.73-1.84-2.39,1.64-5.18.97-2.22-.19-2.45.34-3.87,1.02-2.53-.18-.85-.12-.02-2.57,2.53-4.4.84-4.15.22-2.75-1.14-2.73.7-4.41-.86-3.25-1.73-.83-.25-1.68,1.51.13.68-1.93,2.86v1.72s.52,3.58.52,3.58l-1.23,4.13-1.02,2.53-.1,1.44,2.13,3.85-1.98,3.64.34,1.71.84,3.4v4.26s-1.19,2.65-1.19,2.65l.61,2.56-.43,2.74,1.15,2.65.34,4.38-.72,2.13,2.26,3.55-1.87,2.89,2.67,3.57-2.98,2.92,1.12,1.32.59,4.35-.06,4.59-1.23,1.46,2.05,1.95-.45,4.35.49,3.34-1.24,4.68-.86.87,3.68,2.86-3.65,4.37.29.87,2.5,4.64-2.57,3.95-.02,3.01-.96,1.56,2.31,2.42-1.06,5.04-.88,3.46-1.37,2.62v.44s4.29,3.32,4.29,3.32l-1.15,6.41-2.2,1.92,1.18,1.98-1.32,3.45.96,2.75-.76,3.72-.08,2.33.49,2.39,1.63,4.48-1.65,2.53,1.07,1.54,1.45,4.7-1.18,3.45.16,1.92,1.07,3.42-.53,4.17-1.29,3.93-.82,1.1,2.74,2.86-2.09,3.41,1.61,2.32-.78,4.98-1.47,3.11-.47,2.47-.25,2.21.14.48,1.3-.97,3.03,3.65,1.11-.89,5.22-.8,2.5,1.35,1.95-1,5.68-.86,2.21,2.7,1.31-1h2.93s-.68-2.73-.68-2.73l1.57-3.31-.23-2.25.05-3.59.18-1.77-3.04-4.55,3.54-3.19-.91-1.59.63-5.02,1.35-2.13-.92-2.11.17-2.45-2.43-2.8-.57-6.01,3.11-2.7-.44-1.32-.04-4.33.64-1.55-2.04-2.1-1.08-4.89.95-3.57.26-3.34.97-2.16-1.62-3.64,3.17-3.72v-.48s-2.57-3.2-2.57-3.2l.3-4.15-.29-3.15.6-4.7,2.47-2.33,2.14-2.97,6.15-2.22,3.38,3.19,1.76-.24,2.17-.06,3.25-1.82,4.47.41,2.75.77,2.82-.22,3.77.56,2.36.82,6.17-1.53.06,7.26.14,2.63.73,2.91.95,4.87-2.65,2.75.28.72,2.66,4.95-1.87,2.32,2.77,2.6-2.83,5.68-1.59,2.2.1,1.1,1.59,3.41-.3,2.57,3.09,3.83-3,4.94-.87,2.15v1.31s1.97,3.1,1.97,3.1l-.21,5.52-2.07,2.15,1.2,2.21-1.3,3.31.6,1.58,1.69,3.28.96,4.27-.7,3.19.44,3.08-.67,2.79,1.07,3.69-1.6,2.51,2.36-.8Z" />
</svg>