<?xml version="1.0" encoding="UTF-8"?>
<svg id="Layer_1" xmlns="http://www.w3.org/2000/svg" xmlns:xlink="http://www.w3.org/1999/xlink"
    viewBox="0 0 1000 500">
    <defs>
        <style>
            .cls-1{fill:#30b354;}.cls-1,.cls-2,.bop-text{stroke-width:0px;}.cls-2{fill:none;}.bop-text{fill:#FFFFFF;}.cls-4{clip-path:url(#clippath);}</style>
        <clipPath id="clippath">
            <polygon class="cls-2"
                points="303.81 265.08 303.81 95.14 146.19 95.14 146.19 206.81 303.81 265.08" />
        </clipPath>
    </defs>
    <path class="cls-1"
        d="M497.45,130.46h51.59c35.43,0,50.66,16.47,50.66,50.04v8.7c0,22.38-6.84,36.36-22.07,42.58v.62c18.34,6.22,25.49,22.38,25.49,45.38v18.65c0,33.57-17.72,51.59-51.9,51.59h-53.77v-217.56ZM545,219.04c12.74,0,20.51-5.59,20.51-23v-12.12c0-15.54-5.28-22.38-17.41-22.38h-16.47v57.5h13.36ZM551.22,316.94c11.5,0,17.72-5.28,17.72-21.45v-18.96c0-20.2-6.53-26.42-22.07-26.42h-15.23v66.82h19.58Z" />
    <path class="cls-1"
        d="M649.43,130.46h46.31l35.43,217.56h-34.19l-6.22-43.2v.62h-38.85l-6.22,42.58h-31.7l35.43-217.56ZM686.72,275.91l-15.23-107.54h-.62l-14.92,107.54h30.77Z" />
    <path class="cls-1"
        d="M740.8,296.43v-12.43h32.32v14.92c0,15.54,6.84,21.13,17.72,21.13s17.72-5.59,17.72-21.76c0-18.03-6.84-29.53-29.22-49.11-28.59-25.18-37.92-42.89-37.92-67.76,0-34.19,17.72-54.08,50.97-54.08s49.73,19.89,49.73,54.7v9.01h-32.32v-11.19c0-15.54-6.22-21.45-17.09-21.45s-17.09,5.91-17.09,20.82c0,15.85,7.15,27.35,29.53,46.93,28.59,25.17,37.61,42.58,37.61,69.62,0,35.43-18.03,55.32-51.59,55.32s-50.35-19.89-50.35-54.7Z" />
    <path class="cls-1"
        d="M862.32,130.46h34.19v88.58h36.68v-88.58h34.19v217.56h-34.19v-97.9h-36.68v97.9h-34.19v-217.56Z" />
    <circle class="cls-1" cx="143.66" cy="199.34" r="17.25" />
    <path class="bop-text"
        d="M100.76,115.41v36.39s-37.84,34.24-81.25,27.41c0,0,55.43-26.51,81.25-63.8Z" />
    <path class="bop-text"
        d="M186.15,224.29l-44.19-12.84c-2.84-.82-4.79-3.43-4.79-6.38v-89.65h-36.4v232h57.26c36.41,0,55.27-19.2,55.27-54.94v-19.86c0-24.49-7.61-41.7-27.14-48.32ZM176.89,291.47c0,17.21-6.62,22.84-18.87,22.84h-20.85v-71.16h16.22c16.55,0,23.5,6.62,23.5,28.13v20.19Z" />
    <g class="cls-4">
        <path class="cls-1"
            d="M149.91,264.99c-37.59,0-68.17-32.17-68.17-71.7s30.58-71.7,68.17-71.7,68.17,32.17,68.17,71.7-30.58,71.7-68.17,71.7ZM149.91,131.14c-32.32,0-58.61,27.88-58.61,62.15s26.29,62.15,58.61,62.15,58.61-27.88,58.61-62.15-26.29-62.15-58.61-62.15Z" />
        <path class="cls-1"
            d="M149.91,245.98c-27.66,0-50.16-23.64-50.16-52.69s22.5-52.69,50.16-52.69,50.16,23.64,50.16,52.69-22.5,52.69-50.16,52.69ZM149.91,150.16c-22.39,0-40.6,19.35-40.6,43.13s18.21,43.13,40.6,43.13,40.6-19.35,40.6-43.13-18.21-43.13-40.6-43.13Z" />
        <path class="cls-1"
            d="M149.91,228.45c-18.5,0-33.55-15.77-33.55-35.16s15.05-35.16,33.55-35.16,33.55,15.77,33.55,35.16-15.05,35.16-33.55,35.16ZM149.91,167.69c-13.23,0-24,11.49-24,25.6s10.76,25.6,24,25.6,24-11.49,24-25.6-10.76-25.6-24-25.6Z" />
    </g>
    <path class="bop-text"
        d="M224.29,297.72v-22.04c0-35.84,18.88-56.32,53.44-56.32s53.44,20.48,53.44,56.32v22.04c0,35.84-18.88,56.32-53.44,56.32s-53.44-20.48-53.44-56.32ZM295.97,299.97v-26.53c0-16-7.04-22.08-18.24-22.08s-18.24,6.08-18.24,22.08v26.53c0,16,7.04,22.08,18.24,22.08s18.24-6.08,18.24-22.08Z" />
    <path class="bop-text"
        d="M345.93,219.36h52.24c35.47,0,52.89,19.67,52.89,55.79v22.25c0,36.12-17.41,55.79-52.89,55.79h-16.77v91.91h-35.47v-225.74ZM398.17,320.95c11.29,0,17.41-5.16,17.41-21.28v-26.77c0-16.12-6.13-21.29-17.41-21.29h-16.77v69.34h16.77Z" />
</svg>