<?xml version="1.0" encoding="UTF-8"?><svg id="Layer_1" xmlns="http://www.w3.org/2000/svg" xmlns:xlink="http://www.w3.org/1999/xlink" viewBox="0 0 500 500"><defs><style>.cls-1{fill:#30b354;}.cls-1,.cls-2,.cls-3{stroke-width:0px;}.cls-2{fill:none;}.cls-3{fill:#100b16;}.cls-4{clip-path:url(#clippath);}</style><clipPath id="clippath"><polygon class="cls-2" points="519.05 325.81 519.05 31.7 246.24 31.7 246.24 224.97 519.05 325.81"/></clipPath></defs><circle class="cls-1" cx="241.87" cy="212.04" r="29.85"/><path class="cls-3" d="M167.62,66.77v62.98s-65.49,59.27-140.62,47.44c0,0,95.93-45.89,140.62-110.42Z"/><path class="cls-3" d="M315.41,255.21l-76.49-22.22c-4.91-1.43-8.29-5.93-8.29-11.05V66.77h-63.01v401.53h99.1c63.01,0,95.67-33.23,95.67-95.09v-34.37c0-42.39-13.18-72.18-46.97-83.63ZM299.37,371.49c0,29.79-11.46,39.53-32.65,39.53h-36.09v-123.16h28.07c28.65,0,40.67,11.46,40.67,48.69v34.94Z"/><g class="cls-4"><path class="cls-1" d="M252.68,325.67c-65.05,0-117.98-55.67-117.98-124.1s52.92-124.1,117.98-124.1,117.98,55.67,117.98,124.1-52.92,124.1-117.98,124.1ZM252.68,94.01c-55.93,0-101.43,48.25-101.43,107.56s45.5,107.56,101.43,107.56,101.43-48.25,101.43-107.56-45.5-107.56-101.43-107.56Z"/><path class="cls-1" d="M252.68,292.76c-47.87,0-86.81-40.91-86.81-91.19s38.94-91.19,86.81-91.19,86.81,40.91,86.81,91.19-38.94,91.19-86.81,91.19ZM252.68,126.91c-38.74,0-70.27,33.49-70.27,74.65s31.52,74.65,70.27,74.65,70.27-33.49,70.27-74.65-31.52-74.65-70.27-74.65Z"/><path class="cls-1" d="M252.68,262.42c-32.02,0-58.08-27.3-58.08-60.86s26.05-60.86,58.08-60.86,58.08,27.3,58.08,60.86-26.05,60.86-58.08,60.86ZM252.68,157.25c-22.9,0-41.53,19.88-41.53,44.31s18.63,44.31,41.53,44.31,41.53-19.88,41.53-44.31-18.63-44.31-41.53-44.31Z"/></g></svg>